<svg width="125" height="100" fill="none" xmlns="http://www.w3.org/2000/svg"><path d="M57.065 73.229c-1.41-3.273-2.971-9.95-7.775-8.34-4.351 1.458-6.593 5.082-5.934 9.702.839 5.867 3.97 11.317 7.542 15.904 2.728 2.759 4.373 3.886 8.057 6.163" stroke="#5B6460" stroke-linecap="round" stroke-linejoin="round"/><path d="M56.687 73.207c1.929-4.845 4.07-8.949 8.639-11.552 1.333-.76 4.155-1.697 5.763-1.419 1.754.303 3.688 1.803 4.502 3.277 1.143 2.069 1.61 3.647 1.435 6.059-.196 2.71-1.026 5.304-2.248 7.727-1.637 3.245-4.168 6.178-6.503 8.934-3.02 3.561-6.335 6.81-9.29 10.422" stroke="#5B6460" stroke-linecap="round" stroke-linejoin="round"/><path d="m9.29 2.64.9.02c.36 0 .64.02.84.06l.54.08c.28.04.526.14.74.3-.107.56-.547.84-1.32.84l-5.3-.16c-.574 0-1.26.027-2.06.08.026 1.453.04 3.42.04 5.9 1.52-.133 2.786-.2 3.8-.2 1.96 0 2.94.193 2.94.58 0 .493-.307.74-.92.74-.214 0-.447-.02-.7-.06a22.857 22.857 0 0 0-2.64-.18c-.747 0-1.58.053-2.5.16-.027.44-.06 1.14-.1 2.1-.04.947-.074 1.58-.1 1.9-.014.32-.027.547-.04.68-.014.133-.034.293-.06.48-.014.187-.04.34-.08.46-.027.12-.067.247-.12.38a.862.862 0 0 1-.44.48.49.49 0 0 1-.18.04c-.174 0-.367-.053-.58-.16V15.9c0-.693.06-2.167.18-4.42.12-2.267.18-3.98.18-5.14 0-1.16-.027-2.1-.08-2.82 0-.32.326-.547.98-.68.72-.147 1.406-.22 2.06-.22.666-.013 1.173-.02 1.52-.02l2.5.04Zm5.53 12.4.06 1.14c0 .293-.087.5-.26.62a.888.888 0 0 1-.5.16 1.7 1.7 0 0 1-.5-.08c-.294-1.547-.52-3.473-.68-5.78a347.875 347.875 0 0 0-.26-3.92c.2-.187.406-.28.62-.28.226 0 .426.027.6.08.053.387.093 1.24.12 2.56.026 1.32.06 2.147.1 2.48.186-1.12.52-2.167 1-3.14.266-.547.613-.98 1.04-1.3.44-.333.906-.5 1.4-.5.506 0 .966.227 1.38.68.426.44.64.84.64 1.2 0 .133-.08.24-.24.32-.16.067-.34.1-.54.1a.514.514 0 0 1-.44-.22 1.309 1.309 0 0 1-.22-.48 1.065 1.065 0 0 0-.26-.5.694.694 0 0 0-.54-.22c-.6 0-1.114.54-1.54 1.62-.654 1.613-.98 3.433-.98 5.46Zm6.61-6.34c.68-1.04 1.66-1.56 2.94-1.56s2.3.52 3.06 1.56c.774 1.04 1.16 2.227 1.16 3.56 0 1.32-.42 2.44-1.26 3.36-.84.92-1.906 1.38-3.2 1.38-1.293 0-2.233-.36-2.82-1.08-.586-.733-.88-1.76-.88-3.08 0-1.72.334-3.1 1-4.14Zm.88 1.06a11.17 11.17 0 0 0-.4 1.56c-.08.52-.12 1.007-.12 1.46 0 .44.034.847.1 1.22.067.36.18.72.34 1.08.16.347.4.627.72.84.32.2.7.3 1.14.3.894 0 1.64-.367 2.24-1.1.614-.733.92-1.62.92-2.66s-.28-2.047-.84-3.02c-.546-.987-1.22-1.48-2.02-1.48-.48 0-.9.167-1.26.5-.36.333-.633.767-.82 1.3Zm9.185-1.5c.147 0 .22.88.22 2.64 0 .28-.007.727-.02 1.34v.96c.133-1.507.267-2.533.4-3.08.147-.547.293-1.013.44-1.4.147-.4.307-.707.48-.92.427-.547.92-.82 1.48-.82.707 0 1.233.353 1.58 1.06.36.707.547 1.647.56 2.82.333-2.413 1.213-3.62 2.64-3.62.613 0 1.047.313 1.3.94.253.627.38 1.373.38 2.24l-.06 3.04c0 2 .433 3 1.3 3l1.14-.18c.067 0 .133.007.2.02-.133.2-.38.36-.74.48-.36.107-.713.16-1.06.16-.68 0-1.193-.3-1.54-.9a4.34 4.34 0 0 1-.54-1.92 45.36 45.36 0 0 1-.04-1.74l.04-1.78c0-.587-.04-1.147-.12-1.68-.067-.533-.253-.8-.56-.8-.453 0-.893.953-1.32 2.86-.413 1.893-.667 3.693-.76 5.4a1.2 1.2 0 0 1-.86.38.753.753 0 0 1-.3-.06c-.12-.693-.187-1.847-.2-3.46 0-1.627-.08-2.92-.24-3.88-.16-.96-.52-1.44-1.08-1.44-.373 0-.68.413-.92 1.24-.387 1.293-.733 3.307-1.04 6.04-.08.64-.14 1.1-.18 1.38-.28.24-.567.36-.86.36l-.3-.04c-.187-2.227-.28-4.987-.28-8.28.147-.24.433-.36.86-.36Zm21.031 8.86-1.66.06c-.933 0-1.54-.127-1.82-.38a.666.666 0 0 1-.26-.56c0-1.507.053-3.48.16-5.92.107-2.453.16-4.36.16-5.72 0-.547.507-.987 1.52-1.32 1.013-.333 2.1-.5 3.26-.5 2.173 0 3.973.613 5.4 1.84 1.44 1.227 2.16 2.82 2.16 4.78 0 .987-.173 1.9-.52 2.74a6.858 6.858 0 0 1-1.36 2.18 8.5 8.5 0 0 1-2 1.54c-1.52.84-3.2 1.26-5.04 1.26Zm7.5-7.24c0-1.72-.587-3.16-1.76-4.32-1.16-1.173-2.667-1.76-4.52-1.76-.907 0-1.987.3-3.24.9 0 1.08-.053 2.7-.16 4.86-.107 2.147-.16 3.633-.16 4.46 0 .813.007 1.393.02 1.74.747.147 1.547.22 2.4.22 2.16 0 3.933-.527 5.32-1.58 1.4-1.053 2.1-2.56 2.1-4.52Zm4.381 3.06a6.71 6.71 0 0 0-.04.54c0 .8.24 1.42.72 1.86a2.53 2.53 0 0 0 1.74.66c.667 0 1.207-.093 1.62-.28.427-.187.733-.387.92-.6.48-.6.92-.9 1.32-.9.147 0 .32.04.52.12-.133.653-.64 1.253-1.52 1.8-.867.533-1.96.8-3.28.8-.933 0-1.74-.293-2.42-.88-.667-.6-1-1.413-1-2.44s.2-2.02.6-2.98c.413-.973 1-1.8 1.76-2.48.773-.693 1.553-1.04 2.34-1.04.8 0 1.44.167 1.92.5.493.32.74.793.74 1.42 0 1.16-.52 2.12-1.56 2.88-1.027.747-2.12 1.12-3.28 1.12-.307 0-.673-.033-1.1-.1Zm1.52-.66c.627 0 1.187-.2 1.68-.6.493-.4.84-.82 1.04-1.26.213-.44.32-.84.32-1.2s-.14-.673-.42-.94c-.28-.28-.607-.42-.98-.42-.667 0-1.287.46-1.86 1.38-.56.92-.96 1.873-1.2 2.86.587.12 1.06.18 1.42.18Zm15.133 4.16c-.24.253-.513.38-.82.38-.573 0-1-.307-1.28-.92s-.447-1.36-.5-2.24c-.04-.88-.066-1.76-.08-2.64-.013-.88-.087-1.627-.22-2.24-.12-.613-.353-.92-.7-.92-.466 0-.866.42-1.2 1.26a12.3 12.3 0 0 0-.68 2.8c-.373 2.867-.733 4.473-1.08 4.82-.24.12-.447.18-.62.18s-.32-.02-.44-.06c-.28-1.227-.46-3.34-.54-6.34-.026-1.493-.053-2.46-.08-2.9.28-.187.52-.28.72-.28.2 0 .36.02.48.06.067.573.1 1.747.1 3.52.013 1.773.027 2.793.04 3.06.067-.28.147-.733.24-1.36.107-.627.2-1.14.28-1.54.08-.413.207-.893.38-1.44.174-.547.367-.98.58-1.3.213-.333.507-.613.88-.84a2.28 2.28 0 0 1 1.26-.36c.627 0 1.08.287 1.36.86.293.56.454 1.26.48 2.1.027.84.04 1.693.04 2.56.014.867.12 1.66.32 2.38.213.72.573 1.187 1.08 1.4Zm2.232-8.18c.147 0 .22.88.22 2.64 0 .28-.007.727-.02 1.34v.96c.133-1.507.266-2.533.4-3.08.147-.547.293-1.013.44-1.4.147-.4.306-.707.48-.92.427-.547.92-.82 1.48-.82.707 0 1.233.353 1.58 1.06.36.707.546 1.647.56 2.82.333-2.413 1.213-3.62 2.64-3.62.613 0 1.046.313 1.3.94.253.627.38 1.373.38 2.24l-.06 3.04c0 2 .433 3 1.3 3l1.14-.18c.066 0 .133.007.2.02-.133.2-.38.36-.74.48-.36.107-.713.16-1.06.16-.68 0-1.194-.3-1.54-.9a4.338 4.338 0 0 1-.54-1.92 45.36 45.36 0 0 1-.04-1.74l.04-1.78c0-.587-.04-1.147-.12-1.68-.067-.533-.253-.8-.56-.8-.454 0-.894.953-1.32 2.86-.413 1.893-.667 3.693-.76 5.4a1.2 1.2 0 0 1-.86.38.753.753 0 0 1-.3-.06c-.12-.693-.187-1.847-.2-3.46 0-1.627-.08-2.92-.24-3.88-.16-.96-.52-1.44-1.08-1.44-.374 0-.68.413-.92 1.24-.387 1.293-.733 3.307-1.04 6.04-.08.64-.14 1.1-.18 1.38-.28.24-.567.36-.86.36l-.3-.04c-.187-2.227-.28-4.987-.28-8.28.147-.24.433-.36.86-.36Zm18.739 2.98-.1 2.3c0 1.16.134 1.94.4 2.34.16.267.38.4.66.4.08 0 .194-.02.34-.06.28-.08.514-.04.7.12-.093.467-.56.7-1.4.7-.573 0-.953-.24-1.14-.72-.146-.36-.253-.807-.32-1.34-.066-.547-.12-.92-.16-1.12-.866 1.653-1.706 2.66-2.52 3.02-.413.187-.893.28-1.44.28-.546 0-.973-.26-1.28-.78-.293-.533-.44-1.307-.44-2.32s.167-2.073.5-3.18c.334-1.12.82-2.06 1.46-2.82.64-.773 1.34-1.16 2.1-1.16 1.094 0 1.82.453 2.18 1.36.307.773.46 1.767.46 2.98Zm-4.9-.64a18.84 18.84 0 0 0-.42 2.06c-.093.64-.14 1.213-.14 1.72 0 .493.1.92.3 1.28.214.36.487.54.82.54.72 0 1.414-.68 2.08-2.04.667-1.36 1-2.627 1-3.8 0-.76-.2-1.387-.6-1.88-.266-.32-.62-.48-1.06-.48-.426 0-.82.253-1.18.76-.346.493-.613 1.107-.8 1.84Zm9.525 4.44.06 1.14c0 .293-.087.5-.26.62a.89.89 0 0 1-.5.16c-.16 0-.327-.027-.5-.08-.294-1.547-.52-3.473-.68-5.78a377.723 377.723 0 0 0-.26-3.92c.2-.187.406-.28.62-.28.226 0 .426.027.6.08.053.387.093 1.24.12 2.56.026 1.32.06 2.147.1 2.48a11.21 11.21 0 0 1 1-3.14c.266-.547.613-.98 1.04-1.3.44-.333.906-.5 1.4-.5.506 0 .966.227 1.38.68.426.44.64.84.64 1.2 0 .133-.08.24-.24.32-.16.067-.34.1-.54.1a.513.513 0 0 1-.44-.22 1.304 1.304 0 0 1-.22-.48 1.067 1.067 0 0 0-.26-.5.696.696 0 0 0-.54-.22c-.6 0-1.114.54-1.54 1.62-.654 1.613-.98 3.433-.98 5.46Zm7.628-12.88c.014.933.02 1.633.02 2.1 0 .453-.006.907-.02 1.36 0 .453-.02 1.333-.06 2.64-.04 1.293-.066 2.32-.08 3.08.507-.347 1.114-.88 1.82-1.6a40.84 40.84 0 0 1 1.92-1.88c.907-.813 1.554-1.06 1.94-.74.147.12.194.233.14.34-.133.28-.44.62-.92 1.02-.466.4-1.02.853-1.66 1.36-.64.507-1.146.973-1.52 1.4.974.133 1.754.68 2.34 1.64.254.44.5.88.74 1.32.614 1.16 1.28 1.947 2 2.36-.266.267-.573.4-.92.4-.346 0-.693-.167-1.04-.5a5.054 5.054 0 0 1-.88-1.22c-.24-.48-.486-.96-.74-1.44-.573-1.16-1.24-1.74-2-1.74-.36 0-.666.12-.92.36-.253.227-.38.467-.38.72 0 1.6-.026 2.787-.08 3.56-.186.253-.386.38-.6.38a.703.703 0 0 1-.22-.04c-.293-.12-.44-.367-.44-.74l.12-3.4c.147-4.84.22-7.933.22-9.28 0-.627.06-1.047.18-1.26.134-.213.287-.32.46-.32.187 0 .38.04.58.12Zm7.914 15.28c0-.12-.02-.293-.06-.52a30.18 30.18 0 0 1-.1-.64 4.025 4.025 0 0 1 0-.56c.027-.413.293-.62.8-.62.427 0 .64.633.64 1.9 0 2.187-.727 3.833-2.18 4.94a.833.833 0 0 1-.46.16.925.925 0 0 1-.42-.1c-.133-.067-.2-.153-.2-.26 0-.093.08-.207.24-.34 1.16-.893 1.74-2.213 1.74-3.96Zm-102.13 9.34c-.04.347-.127.947-.26 1.8-.12.853-.214 1.553-.28 2.1-.2 1.64-.3 2.993-.3 4.06 0 1.067.033 1.9.1 2.5.08.587.2 1.147.36 1.68.16.52.393.933.7 1.24.32.307.693.46 1.12.46.613 0 1.153-.333 1.62-1 .48-.667.853-1.52 1.12-2.56.266-1.053.493-2.113.68-3.18.2-1.067.386-2.107.56-3.12.186-1.013.36-1.707.52-2.08.36-.24.633-.36.82-.36.186 0 .326.02.42.06.08.64.16 1.807.24 3.5.093 1.68.213 2.987.36 3.92.16.933.36 1.727.6 2.38.253.653.626 1.2 1.12 1.64.493.427 1.06.64 1.7.64.653 0 1.186-.3 1.6-.9.413-.6.713-1.4.9-2.4.333-1.787.5-3.627.5-5.52 0-1.907-.16-3.393-.48-4.46.333-.24.64-.36.92-.36s.52.22.72.66c.2.44.34 1 .42 1.68.146 1.227.22 2.34.22 3.34s-.094 2.007-.28 3.02a12.159 12.159 0 0 1-.88 2.84c-.387.867-.934 1.56-1.64 2.08-.694.507-1.5.76-2.42.76a3.46 3.46 0 0 1-1.66-.44 4.142 4.142 0 0 1-1.16-1.02c-.294-.4-.56-.92-.8-1.56-.347-.92-.64-2.093-.88-3.52-.56 1.96-1.034 3.313-1.42 4.06-.947 1.8-2.247 2.707-3.9 2.72-1.067 0-1.867-.387-2.4-1.16-.467-.693-.76-1.667-.88-2.92-.04-.533-.06-1.14-.06-1.82 0-2.227.36-5.067 1.08-8.52.346-.2.62-.3.82-.3.213 0 .373.02.48.06Zm19.66-.5c-.012.307-.02.647-.02 1.02s.02.76.06 1.16c-.186.213-.44.32-.76.32-.4 0-.6-.32-.6-.96v-.76a4.25 4.25 0 0 1 .08-.5c.094-.32.3-.48.62-.48s.528.067.62.2Zm-1.28 9.8c0-2.613.134-4.12.4-4.52.094-.147.208-.22.34-.22.134 0 .354.073.66.22a63.268 63.268 0 0 0-.1 3.7l.04 4.42c0 .413-.092.707-.28.88-.172.16-.34.24-.5.24-.146 0-.3-.04-.46-.12-.066-1.733-.1-3.267-.1-4.6Zm3.885-3.46c-.6 0-1.007-.147-1.22-.44 0-.213.087-.38.26-.5.187-.12.387-.193.6-.22.213-.04.56-.073 1.04-.1.04-.36.06-.82.06-1.38.013-.573.026-1.06.04-1.46.04-1.053.2-1.7.48-1.94a.565.565 0 0 1 .38-.16c.147 0 .273.013.38.04.04.96.06 1.54.06 1.74l-.12 3c.026.013.1.02.22.02l1.44-.06c1.04 0 1.56.16 1.56.48 0 .453-.187.72-.56.8-.174.04-.38.06-.62.06-.227 0-.527-.027-.9-.08-.36-.067-.62-.1-.78-.1-.16 0-.267.007-.32.02-.04.387-.06.773-.06 1.16 0 .373.006.847.02 1.42.026.56.08 1.233.16 2.02.093.787.286 1.467.58 2.04.293.56.666.84 1.12.84.227 0 .493-.087.8-.26.306-.187.54-.28.7-.28.173 0 .32.04.44.12.133.067.2.147.2.24 0 .28-.287.553-.86.82-.56.253-1.04.38-1.44.38-1.467 0-2.38-1.387-2.74-4.16-.107-.8-.187-2.173-.24-4.12-.213.04-.44.06-.68.06Zm7.268 4.24.18-8.96c0-.693-.04-1.167-.12-1.42.24-.213.606-.32 1.1-.32.2 1.427.3 3.26.3 5.5 0 .667-.06 2.213-.18 4.64.626-3.373 1.746-5.06 3.36-5.06.573 0 1.013.307 1.32.92.32.6.52 1.333.6 2.2.08.867.146 1.733.2 2.6.133 2.08.506 3.12 1.12 3.12.013 0 .14-.04.38-.12.533-.16.833-.2.9-.12 0 .147-.207.333-.62.56-.414.213-.794.32-1.14.32-.587 0-1.04-.3-1.36-.9-.307-.613-.5-1.353-.58-2.22a86.27 86.27 0 0 1-.16-2.58c-.027-.867-.114-1.6-.26-2.2-.147-.613-.394-.92-.74-.92-.427 0-.82.467-1.18 1.4-.347.92-.62 1.94-.82 3.06-.2 1.12-.447 2.147-.74 3.08-.28.92-.567 1.38-.86 1.38-.467 0-.7-1.32-.7-3.96Zm14.817-7.82c0-1.32-.18-2.207-.54-2.66.174-.253.474-.38.9-.38.08 0 .167.007.26.02.334.333.5 1.3.5 2.9 0 .867-.04 1.873-.12 3.02-.16 2-.24 3.467-.24 4.4 0 2.52.487 3.78 1.46 3.78l.74-.14c.12 0 .22.053.3.16-.04.48-.433.72-1.18.72-.733 0-1.3-.22-1.7-.66-.4-.453-.653-1.013-.76-1.68-.093-.68-.14-1.24-.14-1.68 0-.44.007-.92.02-1.44.014-.533.074-1.293.18-2.28.213-2 .32-3.36.32-4.08Zm4.786 3.66c.68-1.04 1.66-1.56 2.94-1.56s2.3.52 3.06 1.56c.773 1.04 1.16 2.227 1.16 3.56 0 1.32-.42 2.44-1.26 3.36-.84.92-1.907 1.38-3.2 1.38-1.294 0-2.234-.36-2.82-1.08-.587-.733-.88-1.76-.88-3.08 0-1.72.333-3.1 1-4.14Zm.88 1.06c-.174.52-.307 1.04-.4 1.56-.08.52-.12 1.007-.12 1.46 0 .44.033.847.1 1.22.066.36.18.72.34 1.08.16.347.4.627.72.84.32.2.7.3 1.14.3.893 0 1.64-.367 2.24-1.1.613-.733.92-1.62.92-2.66s-.28-2.047-.84-3.02c-.547-.987-1.22-1.48-2.02-1.48-.48 0-.9.167-1.26.5-.36.333-.634.767-.82 1.3Zm7.226-2.38c.12-.253.38-.38.78-.38.174 0 .32.04.44.12.374 1.027.74 2.06 1.1 3.1.68 1.907 1.314 3.413 1.9 4.52.28-1.627.82-3.267 1.62-4.92.814-1.653 1.554-2.48 2.22-2.48.2 0 .4.047.6.14-1.533 2.013-2.633 4.68-3.3 8-.133.773-.28 1.213-.44 1.32a.936.936 0 0 1-.54.18c-.186 0-.333-.04-.44-.12a1.2 1.2 0 0 1-.22-.24c-.04-.08-.1-.213-.18-.4a2.46 2.46 0 0 0-.16-.38c-1.36-2.547-2.486-5.367-3.38-8.46Zm10.554 5.56a6.66 6.66 0 0 0-.04.54c0 .8.24 1.42.72 1.86a2.53 2.53 0 0 0 1.74.66c.667 0 1.207-.093 1.62-.28.427-.187.733-.387.92-.6.48-.6.92-.9 1.32-.9.147 0 .32.04.52.12-.133.653-.64 1.253-1.52 1.8-.867.533-1.96.8-3.28.8-.933 0-1.74-.293-2.42-.88-.667-.6-1-1.413-1-2.44s.2-2.02.6-2.98c.413-.973 1-1.8 1.76-2.48.773-.693 1.553-1.04 2.34-1.04.8 0 1.44.167 1.92.5.493.32.74.793.74 1.42 0 1.16-.52 2.12-1.56 2.88-1.027.747-2.12 1.12-3.28 1.12-.307 0-.673-.033-1.1-.1Zm1.52-.66c.627 0 1.187-.2 1.68-.6.493-.4.84-.82 1.04-1.26.213-.44.32-.84.32-1.2s-.14-.673-.42-.94c-.28-.28-.607-.42-.98-.42-.667 0-1.287.46-1.86 1.38-.56.92-.96 1.873-1.2 2.86.587.12 1.06.18 1.42.18Zm7.933 5.32c-.24 0-.5-.093-.78-.28-.28-.173-.42-.387-.42-.64s.147-.493.44-.72c.293-.24.593-.36.9-.36.307 0 .567.087.78.26.214.173.32.393.32.66 0 .253-.147.493-.44.72-.28.24-.547.36-.8.36Zm4.512 0c-.24 0-.5-.093-.78-.28-.28-.173-.42-.387-.42-.64s.147-.493.44-.72c.293-.24.593-.36.9-.36.307 0 .567.087.78.26.213.173.32.393.32.66 0 .253-.147.493-.44.72-.28.24-.547.36-.8.36Zm4.512 0c-.24 0-.5-.093-.78-.28-.28-.173-.42-.387-.42-.64s.146-.493.44-.72c.293-.24.593-.36.9-.36a1.2 1.2 0 0 1 .78.26c.213.173.32.393.32.66 0 .253-.147.493-.44.72-.28.24-.547.36-.8.36Z" fill="#5B6460"/></svg>