<svg viewBox="0 0 34 17" fill="none" xmlns="http://www.w3.org/2000/svg"><path d="M.62 9.182h31.76c.342 0 .62-.306.62-.682 0-.376-.278-.682-.62-.682H.62c-.342 0-.62.306-.62.682 0 .376.278.682.62.682Z" fill="currentColor"/><path d="M25.154 16a.312.312 0 0 0 .214-.084l7.577-7.214a.283.283 0 0 0 .089-.204.283.283 0 0 0-.089-.203l-7.578-7.21a.313.313 0 0 0-.427 0 .278.278 0 0 0 0 .406l7.364 7.007-7.364 7.01a.278.278 0 0 0 0 .407.31.31 0 0 0 .214.085Z" fill="currentColor" stroke="currentColor" stroke-width=".682"/></svg>