<svg xmlns="http://www.w3.org/2000/svg" xmlns:xlink="http://www.w3.org/1999/xlink"><symbol id="arrow" viewBox="0 0 34 17"><g fill="none"><path d="M.62 9.182h31.76c.342 0 .62-.306.62-.682 0-.376-.278-.682-.62-.682H.62c-.342 0-.62.306-.62.682 0 .376.278.682.62.682Z" fill="currentColor"/><path d="M25.154 16a.312.312 0 0 0 .214-.084l7.577-7.214a.283.283 0 0 0 .089-.204.283.283 0 0 0-.089-.203l-7.578-7.21a.313.313 0 0 0-.427 0 .278.278 0 0 0 0 .406l7.364 7.007-7.364 7.01a.278.278 0 0 0 0 .407.31.31 0 0 0 .214.085Z" fill="currentColor" stroke="currentColor" stroke-width=".682"/></g></symbol><symbol id="bank-transfer" viewBox="0 0 32 32"><g fill="none"><path d="M5.853 22.202c.334-.167.982-.49.982-1.64 0-.827-.502-2.056-2.467-2.056H.475v8.013h3.393c1.641 0 2.076-.279 2.533-.728.422-.41.69-1.015.69-1.648 0-.793-.256-1.574-1.238-1.94Zm-3.77-2.309h1.92c.758 0 1.227.2 1.227.858 0 .638-.523.894-1.184.894H2.083v-1.752Zm2.051 5.242H2.083v-2.143h2.131c.604 0 1.205.271 1.205.971-.002.813-.471 1.172-1.285 1.172ZM.476 27.788v.728h1.24v3.377h.855v-3.377h1.243v-.728H.476ZM28.066 21.787l3.27-3.282h-2.164l-3.058 3.257v-3.257H24.44v8.01h1.674v-2.71l.781-.804 2.476 3.515h2.154l-3.459-4.73ZM12.361 18.505h-1.93l-2.854 8.012h1.762l.557-1.65h2.957l.514 1.649h1.818l-2.824-8.011Zm-2.019 4.976 1.027-3.168h.023l.992 3.168h-2.042ZM19.829 2.805a10.05 10.05 0 0 0-1.705-1.625 7.86 7.86 0 0 0-1.043-.665C16.701.319 16.312.13 15.847 0a6 6 0 0 0 .191 1.324c.094.404.221.783.369 1.147-.354.104-.784.25-1.268.438-.313.14-.656.266-1.002.453-.351.168-.707.372-1.068.6-.367.207-.709.501-1.068.755-.327.311-.686.58-.977.933-.301.338-.595.676-.822 1.06-.115.187-.248.36-.344.551-.092.194-.18.387-.266.575-.195.364-.284.756-.386 1.113a4.516 4.516 0 0 0-.197 1.021c-.027.319-.094.601-.078.861l.02.662c.011.363.014.57.014.57l.105-.562.121-.636c.037-.245.164-.505.252-.792.094-.287.203-.593.383-.887.164-.299.313-.622.555-.901l.332-.438c.117-.143.267-.266.396-.4.254-.277.564-.501.871-.723.293-.233.65-.39.959-.581.352-.141.662-.317 1.008-.419.33-.12.655-.221.973-.293.309-.09.62-.13.891-.188.174-.025.334-.046.488-.065-.018.046-.037.09-.053.137a8.211 8.211 0 0 0-.367 1.367c-.039.243-.071.489-.096.74-.02.255-.024.519-.006.797.261-.1.498-.213.723-.336a8.132 8.132 0 0 0 1.727-1.295 10.267 10.267 0 0 0 1.674-2.13l.059-.098a1.347 1.347 0 0 0-.131-1.555ZM7.578 30.965c0-.766-.184-.892-.521-1.04.406-.137.635-.524.635-.979 0-.354-.199-1.159-1.291-1.159H4.325v4.103h.842v-1.605h.885c.635 0 .67.218.67.776 0 .422.033.636.09.828h.949v-.107c-.183-.068-.183-.218-.183-.817Zm-1.409-1.369H5.166v-1.1h1.068c.502 0 .6.318.6.537-.001.404-.217.563-.665.563ZM23.339 28.516v-.728h-2.92v4.106h.858v-1.726h1.806v-.726h-1.806v-.926h2.062ZM24.755 31.165v-1.06h2v-.726h-2v-.862h2.179v-.727h-3.019v4.103h3.115v-.728h-2.275ZM18.691 29.553l-.998-.246c-.172-.041-.436-.11-.436-.43 0-.371.391-.49.715-.49.75 0 .819.433.842.616h.82c-.006-.503-.342-1.325-1.6-1.325-1.332 0-1.577.805-1.577 1.262 0 .904.639 1.055 1.303 1.207l.439.104c.433.105.743.189.743.511 0 .429-.453.529-.856.529-.75 0-.865-.434-.871-.663h-.82c0 .511.255 1.372 1.753 1.372.358 0 1.617-.112 1.617-1.343-.001-.737-.515-.968-1.074-1.104ZM30.982 30.965c0-.766-.186-.892-.521-1.04.404-.137.637-.524.637-.979 0-.354-.201-1.159-1.293-1.159h-2.074v4.103h.842v-1.605h.885c.633 0 .67.218.67.776 0 .422.033.636.091.828h.946v-.107c-.183-.068-.183-.218-.183-.817Zm-1.406-1.369h-1.004v-1.1h1.066c.504 0 .602.318.602.537 0 .404-.217.563-.664.563ZM21.145 18.508v5.578h-.021l-3.181-5.578H16.18v8.012h1.562l.002-5.712h.021l3.27 5.713h1.672v-8.013h-1.562ZM10.474 27.788h-.991L8.02 31.891h.904l.285-.847h1.514l.264.847h.932l-1.445-4.103Zm-1.035 2.548.527-1.622h.008l.512 1.622H9.439ZM14.976 27.788l-.001 2.856h-.01l-1.631-2.856h-.902v4.103h.799v-2.927h.013l1.674 2.927h.859v-4.103h-.801ZM21.957 5.66c-.019-.362-.035-.568-.035-.568s-.029.205-.09.564c-.029.177-.062.392-.101.639-.03.246-.149.509-.229.799-.083.29-.182.598-.354.898-.154.304-.293.63-.527.917-.104.147-.211.297-.317.449-.115.145-.259.273-.388.411-.244.283-.547.518-.848.748-.283.242-.637.408-.941.609-.346.151-.651.337-.994.448a7.73 7.73 0 0 1-.964.322c-.305.1-.613.149-.883.214a18.02 18.02 0 0 1-.486.08c.014-.047.033-.091.049-.138.144-.439.254-.897.326-1.378.031-.244.054-.491.072-.743.013-.255.009-.52-.016-.796a5.578 5.578 0 0 0-.713.357c-.215.133-.42.271-.621.413-.392.289-.746.6-1.064.933a10.261 10.261 0 0 0-1.609 2.179l-.057.098a1.346 1.346 0 0 0 .178 1.551 10.15 10.15 0 0 0 1.752 1.573c.328.233.679.445 1.064.633.383.186.777.364 1.248.479-.025-.481-.123-.903-.23-1.316a7.58 7.58 0 0 0-.404-1.136 16.37 16.37 0 0 0 1.254-.475c.308-.148.647-.286.988-.483a9.843 9.843 0 0 0 1.045-.631c.36-.218.694-.522 1.047-.787.317-.319.668-.601.949-.961.291-.347.573-.692.789-1.083.11-.191.235-.368.327-.562.084-.197.168-.392.248-.583.184-.37.262-.765.354-1.124a4.55 4.55 0 0 0 .166-1.025c.021-.319.076-.604.054-.863-.017-.255-.029-.478-.039-.662Z" fill="currentColor"/></g></symbol><symbol id="coffee" viewBox="0 0 70 70"><g fill="none"><path d="M64.5 0H17.834c-.645 0-1.167.522-1.167 1.167v11.666a5.84 5.84 0 0 0 5.833 5.834h4.667v3.5H26A1.167 1.167 0 0 0 24.906 21L6.239 19.833A1.167 1.167 0 0 0 5 21v4.667c0 .644.523 1.166 1.167 1.166h.072l18.667-1.166A1.167 1.167 0 0 0 26 24.5h1.167v2.333c0 .645.522 1.167 1.167 1.167h2.333v3.5c0 .644.522 1.167 1.167 1.167H33v1.166a1.167 1.167 0 0 0 2.334 0v-1.166H36.5c.645 0 1.167-.523 1.167-1.167V28H40c.645 0 1.167-.522 1.167-1.167v-8.166H47v32.666H35.334a5.84 5.84 0 0 0 5.833-5.833v-7c0-.644-.523-1.167-1.167-1.167H28.334c-.645 0-1.167.523-1.167 1.167v1.167H26A1.167 1.167 0 0 0 26 42h1.167v3.5A5.84 5.84 0 0 0 33 51.333h-9.333a5.84 5.84 0 0 0-5.833 5.834v11.666c0 .645.522 1.167 1.166 1.167h45.5c.644 0 1.167-.522 1.167-1.167V1.167C65.667.522 65.144 0 64.5 0ZM23.667 23.404 7.334 24.425v-2.184l16.333 1.021v.142ZM29.5 45.5v-5.833h9.334V45.5a3.5 3.5 0 0 1-3.5 3.5H33a3.5 3.5 0 0 1-3.5-3.5ZM47 67.667H20.167v-10.5a3.5 3.5 0 0 1 3.5-3.5H47v14ZM35.334 30.333H33V28h2.334v2.333Zm3.5-4.666H29.5v-7h9.334v7Zm24.5 42h-14V17.5c0-.644-.523-1.167-1.167-1.167H22.5a3.5 3.5 0 0 1-3.5-3.5v-10.5h44.334v65.334Z" fill="currentColor"/><path d="M55.167 15.167a5.833 5.833 0 1 0-5.833-5.834 5.84 5.84 0 0 0 5.833 5.834Zm0-7h-3.285a3.5 3.5 0 1 1 0 2.333h3.285a1.167 1.167 0 0 0 0-2.333ZM52.834 25.667c-.645 0-1.167.522-1.167 1.166v2.334a1.167 1.167 0 0 0 2.333 0v-2.334c0-.644-.522-1.166-1.166-1.166ZM52.834 32.667c-.645 0-1.167.522-1.167 1.166v2.334a1.167 1.167 0 0 0 2.333 0v-2.334c0-.644-.522-1.166-1.166-1.166ZM52.834 39.667c-.645 0-1.167.522-1.167 1.166v2.334a1.167 1.167 0 0 0 2.333 0v-2.334c0-.644-.522-1.166-1.166-1.166Z" fill="currentColor"/></g></symbol><symbol id="facebook" viewBox="0 0 10 21"><g fill="none"><path d="M8.957 10.48H6.19V21H1.995V10.48H0V6.782h1.995V4.39c0-1.711.783-4.39 4.231-4.39l3.107.013v3.59H7.08c-.37 0-.89.19-.89 1.007v2.176h3.135l-.367 3.694Z" fill="currentColor"/></g></symbol><symbol id="fridge" viewBox="0 0 70 70"><g fill="none"><path d="M54.831 23.453V3.69A3.696 3.696 0 0 0 51.14 0H18.692A3.696 3.696 0 0 0 15 3.69v19.762a3.68 3.68 0 0 0 1.22 2.734A3.678 3.678 0 0 0 15 28.921v33.43a3.696 3.696 0 0 0 3.692 3.692h.501v2.937a.957.957 0 0 0 .957.957h6.836a.957.957 0 0 0 .957-.957v-2.937h13.945v2.937a.957.957 0 0 0 .958.957h6.835a.957.957 0 0 0 .957-.957v-2.937h.502a3.696 3.696 0 0 0 3.691-3.691v-33.43a3.678 3.678 0 0 0-1.22-2.735 3.678 3.678 0 0 0 1.22-2.734ZM26.03 68.023h-4.922v-1.98h4.922v1.98Zm22.695 0h-4.921v-1.98h4.921v1.98Zm4.193-39.102v33.43a1.78 1.78 0 0 1-1.777 1.778H18.692a1.78 1.78 0 0 1-1.778-1.777v-33.43a1.78 1.78 0 0 1 1.778-1.778H51.14a1.78 1.78 0 0 1 1.777 1.777ZM18.692 25.23a1.78 1.78 0 0 1-1.778-1.777V3.69a1.78 1.78 0 0 1 1.778-1.777H51.14a1.78 1.78 0 0 1 1.777 1.777v19.762a1.78 1.78 0 0 1-1.777 1.777H18.692Z" fill="currentColor"/><path d="M48.485 6.935h-3.554a.957.957 0 0 0-.957.957v11.485a.957.957 0 0 0 .957.957h3.554a.957.957 0 0 0 .957-.957V7.892a.957.957 0 0 0-.957-.957Zm-.957 11.485h-1.64V8.85h1.64v9.57ZM44.93 44.165h3.555a.958.958 0 0 0 .957-.957V31.723a.957.957 0 0 0-.957-.957h-3.554a.957.957 0 0 0-.957.957v11.485a.957.957 0 0 0 .957.957Zm.958-11.485h1.64v9.57h-1.64v-9.57Z" fill="currentColor"/></g></symbol><symbol id="heart"><g fill="none"><path d="M18.065 18.229c-1.41-3.273-2.971-9.95-7.775-8.34-4.351 1.458-6.594 5.082-5.933 9.702.838 5.867 3.969 11.317 7.541 15.904 2.728 2.759 4.373 3.886 8.058 6.163" stroke="#5B6460" stroke-linecap="round" stroke-linejoin="round"/><path d="M17.687 18.207c1.929-4.845 4.07-8.949 8.639-11.552 1.333-.76 4.155-1.697 5.763-1.419 1.754.303 3.688 1.803 4.502 3.277 1.143 2.069 1.61 3.647 1.435 6.059-.196 2.71-1.026 5.304-2.248 7.727-1.636 3.245-4.168 6.178-6.503 8.934-3.02 3.561-6.335 6.81-9.29 10.422" stroke="#5B6460" stroke-linecap="round" stroke-linejoin="round"/></g></symbol><symbol id="heating" viewBox="0 0 70 70"><g fill="none"><path d="M30.625 70c-8.846 0-16.041-7.198-16.041-16.042 0-4.765 2.167-9.336 5.833-12.372V10.208C20.417 4.58 24.997 0 30.625 0c5.63 0 10.209 4.58 10.209 10.208v31.378c3.666 3.036 5.833 7.607 5.833 12.372C46.667 62.802 39.472 70 30.625 70Zm0-67.083c-4.019 0-7.291 3.272-7.291 7.291v32.084c0 .458-.216.89-.58 1.163-3.29 2.477-5.254 6.403-5.254 10.503 0 7.237 5.89 13.125 13.125 13.125 7.237 0 13.125-5.888 13.125-13.125 0-4.1-1.962-8.026-5.252-10.503a1.457 1.457 0 0 1-.58-1.163V10.208c0-4.019-3.273-7.291-7.293-7.291Z" fill="currentColor"/><path d="M30.625 61.25c-4.019 0-7.291-3.27-7.291-7.292s3.272-7.291 7.291-7.291c4.02 0 7.292 3.27 7.292 7.291 0 4.022-3.272 7.292-7.292 7.292Zm0-11.667a4.38 4.38 0 0 0-4.375 4.375 4.38 4.38 0 0 0 4.375 4.375A4.38 4.38 0 0 0 35 53.958a4.38 4.38 0 0 0-4.375-4.375Z" fill="currentColor"/><path d="M30.625 49.583a1.459 1.459 0 0 1-1.458-1.458V16.042a1.459 1.459 0 0 1 2.916 0v32.083c0 .805-.653 1.458-1.458 1.458ZM53.958 11.667h-5.833a1.459 1.459 0 0 1 0-2.917h5.833a1.459 1.459 0 0 1 0 2.917ZM53.958 23.333h-5.833a1.459 1.459 0 0 1 0-2.916h5.833a1.459 1.459 0 0 1 0 2.916ZM53.958 35h-5.833a1.459 1.459 0 0 1 0-2.917h5.833a1.459 1.459 0 0 1 0 2.917Z" fill="currentColor"/></g></symbol><symbol id="instagram" viewBox="0 0 21 21"><g fill="none"><path d="M10.504 5.108a5.388 5.388 0 1 0 0 10.777 5.388 5.388 0 1 0 0-10.777Zm0 8.886A3.497 3.497 0 1 1 14 10.497a3.496 3.496 0 0 1-3.498 3.497Z" fill="currentColor"/><path d="M14.83.066c-1.932-.09-6.718-.085-8.652 0-1.699.08-3.198.49-4.406 1.699-2.02 2.02-1.761 4.74-1.761 8.731 0 4.085-.228 6.743 1.761 8.732 2.027 2.027 4.788 1.761 8.732 1.761 4.046 0 5.442.003 6.873-.55 1.945-.756 3.413-2.494 3.557-5.617.09-1.933.085-6.718 0-8.652C20.76 2.484 18.782.248 14.83.066Zm3.058 17.826c-1.324 1.324-3.16 1.206-7.41 1.206-4.375 0-6.13.065-7.41-1.22-1.474-1.466-1.207-3.823-1.207-7.396 0-4.834-.496-8.316 4.356-8.564 1.115-.04 1.443-.053 4.249-.053l.04.027c4.662 0 8.32-.489 8.54 4.362.05 1.107.062 1.44.062 4.242-.001 4.324.08 6.089-1.22 7.396Z" fill="currentColor"/><path d="M16.105 6.155a1.26 1.26 0 1 0 0-2.519 1.26 1.26 0 0 0 0 2.519Z" fill="currentColor"/></g></symbol><symbol id="kettle" viewBox="0 0 70 70"><g fill="none"><path d="m66.982 36.788-3.089-9.503a29.302 29.302 0 0 0-8.053-12.522 29.303 29.303 0 0 0-13.175-6.935L35.883 6.26l-18.82-4.094a1.027 1.027 0 1 0-.438 2.007L35.42 8.262l.04.009c4.287.945 7.458 4.5 7.894 8.855.532 5.325 1.686 11.245 3.429 17.596 2.319 8.45 2.206 15.514 1.703 19.952-.396 3.49-1.087 5.946-1.443 7.045H33.328a1.027 1.027 0 1 0 0 2.055H47.19l2.174 3.645c.09.152.041.285.004.35a.336.336 0 0 1-.303.176H5.407a.337.337 0 0 1-.303-.176.337.337 0 0 1 .004-.35l2.174-3.645h21.937a1.027 1.027 0 1 0 0-2.055H7.459c-1.657-5.48-2.288-10.358-1.98-15.287.288-4.59 1.352-8.656 2.478-12.961 1.402-5.362 2.853-10.906 2.998-18.068.08-3.964-2.334-9.13-4.374-12.765-.139-.346.045-.591.417-.56L12.612 3.3a1.027 1.027 0 1 0 .437-2.007L7.435.07C5.459-.437 3.726 1.9 4.789 3.643c1.568 2.794 4.187 8.032 4.112 11.718-.14 6.919-1.56 12.343-2.931 17.59-2.247 8.59-4.37 16.71-.388 29.662l-2.238 3.754a2.376 2.376 0 0 0-.026 2.417A2.376 2.376 0 0 0 5.407 70h43.659c.875 0 1.656-.454 2.088-1.216a2.375 2.375 0 0 0-.025-2.417l-2.224-3.73c.355-1.041 1.158-3.702 1.612-7.643.534-4.635.664-12.009-1.753-20.816-1.547-5.638-2.62-10.92-3.196-15.73a15.707 15.707 0 0 1 9.549 9.354c.455 1.26 2.407.52 1.925-.718A17.759 17.759 0 0 0 45.303 16.21a12.1 12.1 0 0 0-3.128-6.387l.028.007a27.247 27.247 0 0 1 12.248 6.448A27.244 27.244 0 0 1 61.94 27.92l3.09 9.503c.193.597.093 1.23-.276 1.738s-.94.799-1.568.799a1.946 1.946 0 0 1-1.816-1.261l-3.06-8.216a1.028 1.028 0 0 0-1.925.718l3.06 8.215a4.01 4.01 0 0 0 3.741 2.598c1.293 0 2.47-.6 3.23-1.646.76-1.045.966-2.35.567-3.58Z" fill="currentColor"/><path d="M32.522 50.892a4.509 4.509 0 0 0 4.504-4.504v-22.92a4.51 4.51 0 0 0-4.504-4.504 4.51 4.51 0 0 0-4.503 4.504v22.92a4.509 4.509 0 0 0 4.503 4.504Zm0-29.877c1.353 0 2.453 1.1 2.453 2.453v22.92c0 1.352-1.1 2.453-2.453 2.453a2.456 2.456 0 0 1-2.453-2.453v-1.085h1.69a1.025 1.025 0 1 0 0-2.05h-1.69v-3.731h1.69a1.025 1.025 0 1 0 0-2.05h-1.69V33.74h1.69a1.025 1.025 0 1 0 0-2.051h-1.69v-3.73h1.69a1.025 1.025 0 1 0 0-2.051h-1.69v-2.441c0-1.353 1.1-2.453 2.453-2.453Z" fill="currentColor"/></g></symbol><symbol id="kitchen" viewBox="0 0 70 70"><g fill="none"><path d="M68.834 15.167H43.167c-.644 0-1.167.522-1.167 1.166v28h-5.833v-1.166h1.167a1.167 1.167 0 0 0 0-2.334H25.667a1.167 1.167 0 0 0 0 2.334h1.167v1.166H15.167v-1.166h1.167a1.167 1.167 0 0 0 0-2.334H4.667a1.167 1.167 0 0 0 0 2.334h1.167v1.166H1.167C.523 44.333 0 44.856 0 45.5v23.333C0 69.478.523 70 1.167 70h67.667c.644 0 1.166-.522 1.166-1.167v-52.5c0-.644-.522-1.166-1.166-1.166Zm-39.667 28h4.667v1.166h-4.667v-1.166Zm-21 0h4.667v1.166H8.167v-1.166Zm10.5 24.5H2.334v-14h16.333v14Zm0-16.334H2.334v-4.666h16.333v4.666ZM42 67.667H21v-21h21v21Zm25.667 0H44.334v-31.5h23.333v31.5Zm0-33.834H44.334V17.5h23.333v16.333Z" fill="currentColor"/><path d="M24.5 65.333h14c.645 0 1.167-.522 1.167-1.166v-14c0-.645-.522-1.167-1.167-1.167h-14c-.644 0-1.166.522-1.166 1.167v14c0 .644.522 1.166 1.166 1.166Zm1.167-14h11.667V63H25.667V51.333ZM46.667 32.667c.644 0 1.167-.523 1.167-1.167v-4.667a1.167 1.167 0 0 0-2.334 0V31.5c0 .644.523 1.167 1.167 1.167ZM46.667 44.333c.644 0 1.167-.522 1.167-1.166V38.5a1.167 1.167 0 0 0-2.334 0v4.667c0 .644.523 1.166 1.167 1.166ZM2.75 20.729c.211.175.476.271.75.271h35a1.167 1.167 0 0 0 .898-1.915l-11.667-14a1.167 1.167 0 0 0-.897-.418h-1.167v-3.5C25.667.522 25.145 0 24.5 0h-7c-.644 0-1.166.522-1.166 1.167v3.5h-1.167c-.346 0-.675.153-.897.418l-11.667 14a1.167 1.167 0 0 0 .148 1.644ZM18.668 2.333h4.667v2.334h-4.667V2.333ZM15.714 7h10.572l9.724 11.667H5.99L15.714 7Z" fill="currentColor"/></g></symbol><symbol id="mastercard" viewBox="0 0 49 49"><g fill="none"><path d="M33.933 9.716a14.433 14.433 0 0 0-9.721 3.748 14.442 14.442 0 0 0-9.717-3.745h-.093C6.444 9.771 0 16.245 0 24.214c0 8.001 6.494 14.494 14.494 14.494 3.737 0 7.145-1.417 9.716-3.745a14.336 14.336 0 0 1-1.482-1.584h2.993a14.492 14.492 0 0 1-1.472 1.553h-.002c-.012.013-.025.021-.037.032a14.44 14.44 0 0 0 9.728 3.75c8.005-.004 14.492-6.496 14.49-14.5v-.007c.001-8.004-6.49-14.493-14.495-14.49Zm-11.039 5.245h2.755c.406.492.783 1.01 1.125 1.552h-4.915a21.68 21.68 0 0 1 1.035-1.552Zm-1.891 3.074h6.607c.235.502.443 1.021.625 1.553H20.22c.08-.15.36-.754.783-1.553ZM5.917 27.906l.879-5.542-1.983 5.542H3.75l-.138-5.542-.939 5.542H1.184l1.234-7.35H4.67l.079 4.51 1.521-4.51h2.443l-1.217 7.35H5.917Zm5.265-.012.051-.587c-.024.003-.494.71-1.583.71-.57 0-1.49-.312-1.49-1.664 0-1.719 1.402-2.289 2.737-2.289.21 0 .663.038.663.038s.051-.105.051-.389c0-.467-.42-.53-.995-.53-1.013 0-1.682.27-1.682.27l.224-1.33s.812-.34 1.869-.34c.547 0 2.12.058 2.12 1.861l-.606 4.25h-1.359Zm5.743-1.872c0 2.051-1.987 1.963-2.334 1.963-1.295 0-1.695-.179-1.732-.189l.206-1.35c.002-.012.65.235 1.371.235.416 0 .956-.04.956-.538 0-.744-1.932-.566-1.932-2.333 0-1.559 1.158-2.015 2.3-2.015.882 0 1.424.121 1.424.121l-.195 1.362s-.837-.069-1.054-.069c-.549 0-.848.12-.848.504-.001.772 1.838.394 1.838 2.31Zm2.386.538c.137 0 .292-.047.398-.047l-.193 1.311c-.155.043-.594.2-1.157.203-.719.006-1.23-.396-1.23-1.308 0-.612.877-5.655.911-5.688h1.543l-.157.902h.77l-.197 1.453h-.817l-.434 2.677c-.033.213.026.497.563.497Zm3.394-4.797c1.694 0 2.201 1.24 2.201 2.257 0 .407-.204 1.407-.204 1.407h-3.136s-.29 1.235 1.367 1.235c.777 0 1.639-.38 1.639-.38L24.3 27.77s-.498.254-1.63.254c-1.227 0-2.666-.519-2.666-2.699.001-1.889 1.149-3.56 2.701-3.56Zm4.087 10.123H21.65c-.313-.5-.605-1.013-.856-1.552h6.843a14.886 14.886 0 0 1-.845 1.552Zm-.345-3.969h-1.584l.963-5.982h1.437l-.138.867s.512-.943 1.203-.943c.201 0 .298.02.298.02-.205.418-.386.801-.574 1.79-1.072-.38-1.154 1.693-1.605 4.248Zm6.035-.093s-.83.212-1.35.212c-1.842 0-2.777-1.27-2.777-3.196 0-2.903 1.733-4.449 3.514-4.449.805 0 1.738.378 1.738.378l-.252 1.635s-.631-.44-1.416-.44c-1.05 0-1.992 1.001-1.992 2.822 0 .897.439 1.733 1.535 1.733.521 0 1.276-.379 1.276-.379l-.276 1.684Zm3.715.073.052-.59c-.025.002-.495.708-1.583.708-.57 0-1.49-.31-1.49-1.663 0-1.719 1.402-2.289 2.736-2.289.21 0 .664.038.664.038s.052-.104.052-.388c0-.467-.42-.53-.996-.53-1.013 0-1.681.27-1.681.27l.224-1.33s.812-.34 1.87-.34c.546 0 2.12.058 2.119 1.861l-.606 4.25c-.001.003-1.361.003-1.361.003Zm3.207.02H37.82l.963-5.982h1.438l-.138.867s.513-.943 1.204-.943c.201 0 .297.02.297.02-.204.418-.387.801-.574 1.79-1.073-.38-1.155 1.693-1.606 4.248Zm4.729-.016.067-.55s-.512.645-1.438.645c-1.283 0-1.912-1.239-1.912-2.505 0-1.958 1.178-3.665 2.592-3.665.91.002 1.491.805 1.491.805l.334-2.065 1.547-.003-1.18 7.338h-1.501Zm3.052-.207a.461.461 0 0 1-.406.237.471.471 0 0 1-.404-.237.464.464 0 0 1 0-.466.475.475 0 0 1 .404-.236c.08 0 .156.021.23.062a.461.461 0 0 1 .176.64ZM47.061 32.117c-.01-.007-.019-.018-.035-.024a.244.244 0 0 0-.08-.009h-.094v.15h.1c.047 0 .078-.004.096-.021a.066.066 0 0 0 .025-.055.075.075 0 0 0-.012-.041Z" fill="currentColor"/><path d="M47.384 32.027a.43.43 0 0 0-.177-.174.472.472 0 0 0-.229-.062.467.467 0 0 0-.23.062.434.434 0 0 0-.176.174.472.472 0 0 0 .408.701.468.468 0 0 0 .404-.701Zm-.288.492-.044-.079a.418.418 0 0 0-.086-.119.11.11 0 0 0-.064-.018h-.047v.215h-.082v-.505h.174c.06 0 .103.005.127.015.027.01.05.024.064.049a.127.127 0 0 1 .023.074.144.144 0 0 1-.039.097.162.162 0 0 1-.105.046.11.11 0 0 1 .043.027.59.59 0 0 1 .075.099l.062.099h-.101ZM11.022 25.21c-1.131 0-1.36.509-1.36.932 0 .218.125.582.604.582.929 0 1.122-1.218 1.092-1.477-.044-.01-.072-.035-.336-.036ZM22.711 23.144c-.841 0-1.003.957-1.003 1.058h1.713c0-.077.161-1.058-.71-1.058ZM43.709 23.311c-.679 0-1.216.788-1.215 1.985 0 .73.26 1.198.816 1.198.836 0 1.239-1.091 1.239-1.904 0-.897-.285-1.279-.84-1.279ZM47.115 27.268a.377.377 0 0 0-.146-.145.381.381 0 0 0-.528.145.403.403 0 0 0-.053.195c0 .067.018.133.051.194a.409.409 0 0 0 .339.2c.067 0 .133-.02.193-.054a.388.388 0 0 0 .144-.535Zm-.217.452-.045-.078a.404.404 0 0 0-.084-.118.102.102 0 0 0-.066-.019h-.046v.214h-.084v-.504h.175c.059 0 .103.005.128.016a.143.143 0 0 1 .064.048.116.116 0 0 1 .023.074.136.136 0 0 1-.04.096c-.026.029-.062.041-.104.046.02.008.033.017.043.026a.51.51 0 0 1 .074.099l.062.1h-.1ZM36.039 25.21c-1.131 0-1.36.509-1.36.932 0 .218.124.582.604.582.929 0 1.121-1.218 1.092-1.477-.045-.01-.073-.035-.336-.036Z" fill="currentColor"/><path d="M46.864 27.318a.091.091 0 0 0-.034-.025.283.283 0 0 0-.082-.01v.001h-.091v.152h.099c.047 0 .078-.006.097-.021a.078.078 0 0 0 .024-.056.067.067 0 0 0-.013-.041Z" fill="currentColor"/></g></symbol><symbol id="parking" viewBox="0 0 70 70"><g fill="none"><path d="M35 0C20.205 0 8.167 12.665 8.167 28.233c0 15.257 24.947 40.364 26.008 41.426a1.168 1.168 0 0 0 1.65 0c1.062-1.062 26.009-26.169 26.009-41.426C61.834 12.665 49.796 0 35 0Zm0 67.163c-4.362-4.525-24.5-26.114-24.5-38.93 0-14.28 10.992-25.9 24.5-25.9 13.51 0 24.5 11.62 24.5 25.9 0 12.81-20.139 34.404-24.5 38.93Z" fill="currentColor"/><path d="M35 5.833c-11.579 0-21 9.421-21 21 0 11.58 9.421 21 21 21 11.58 0 21-9.42 21-21 0-11.579-9.42-21-21-21ZM35 45.5c-10.293 0-18.666-8.374-18.666-18.667 0-10.292 8.373-18.666 18.666-18.666 10.294 0 18.667 8.374 18.667 18.666C53.667 37.126 45.294 45.5 35 45.5ZM35 57.167c-.644 0-1.166.522-1.166 1.166v10.5a1.167 1.167 0 0 0 2.333 0v-10.5c0-.644-.523-1.166-1.167-1.166Z" fill="currentColor"/><path d="M37.334 18.667h-4.667c-.644 0-1.167.522-1.167 1.166V24.5c0 .644.523 1.167 1.167 1.167h4.667c1.93 0 3.5-1.57 3.5-3.5s-1.57-3.5-3.5-3.5Zm0 4.666h-3.5V21h3.5a1.168 1.168 0 0 1 0 2.333Z" fill="currentColor"/><path d="M37.334 14H28c-.644 0-1.166.523-1.166 1.167V38.5c0 .644.522 1.167 1.166 1.167h4.667c.644 0 1.166-.523 1.166-1.167v-8.167h3.5c4.504 0 8.167-3.663 8.167-8.166 0-4.504-3.663-8.167-8.166-8.167Zm0 14h-4.667c-.644 0-1.167.523-1.167 1.167v8.166h-2.333v-21h8.166a5.84 5.84 0 0 1 5.834 5.834A5.84 5.84 0 0 1 37.333 28ZM68.834 67.667h-4.667a1.167 1.167 0 0 0 0 2.333h4.667a1.167 1.167 0 0 0 0-2.333ZM28 67.667H1.167a1.167 1.167 0 0 0 0 2.333H28a1.167 1.167 0 0 0 0-2.333ZM56 67.667H42A1.167 1.167 0 0 0 42 70h14a1.167 1.167 0 0 0 0-2.333Z" fill="currentColor"/></g></symbol><symbol id="paypal" viewBox="0 0 51 51"><g fill="none"><path d="M9.035 20.604a2.043 2.043 0 0 0-.75-.809 3.513 3.513 0 0 0-1.193-.438 9.75 9.75 0 0 0-1.62-.128l-2.868.002a.718.718 0 0 0-.66.524L.015 28.157c-.07.284.117.522.415.522h1.373a.703.703 0 0 0 .66-.522l.47-2.04a.703.703 0 0 1 .658-.521h.393c1.68-.002 2.98-.345 3.913-1.032.94-.688 1.402-1.597 1.402-2.723 0-.493-.082-.907-.264-1.237Zm-2.96 2.745c-.416.304-.993.456-1.737.456h-.336c-.299 0-.482-.236-.417-.524l.413-1.784c.058-.286.36-.523.654-.521l.45-.003c.525 0 .926.091 1.194.267.265.174.398.451.396.818.008.558-.205.987-.618 1.291ZM48.175 19.887l-.086.026-.115.016-.141-.022-.072-.07-.033-.11-.002-.165v-.61h.459v-.19h-.459v-.38h-.227v.38h-.154v.19h.154v.71l.106.352.312.112.131-.01.139-.028v-.2h-.012ZM50.304 18.86l-.328-.136-.242.05-.246.165-.143-.159-.232-.055-.223.05-.211.135v-.148h-.223v1.335h.222V19.1l.187-.116.186-.046.152.027.075.077.033.128.011.165v.763h.223v-.854l-.004-.07-.004-.066.19-.12.188-.048.147.027.08.077.028.13.015.162v.763h.224v-.867l-.105-.373ZM15.656 21.805c-.518-.292-1.336-.438-2.454-.438-.553 0-1.104.043-1.661.129-.411.063-.451.075-.704.13-.522.114-.604.635-.604.635l-.168.69c-.095.442.159.425.265.388.228-.068.355-.138.821-.242.445-.101.914-.177 1.286-.172.549 0 .969.058 1.249.176.276.12.414.326.414.624l-.024.194-.198.122c-.779.049-1.342.12-2.025.22-.668.093-1.254.256-1.741.479-.523.23-.911.539-1.182.932-.262.395-.393.874-.393 1.436 0 .529.19.966.559 1.304.371.332.861.494 1.447.494.371-.002.658-.031.862-.08l.665-.23.563-.311.518-.342.007.01-.052.22-.003.009v.002c-.056.268.106.488.367.514l.005.006h1.275l.018-.008a.71.71 0 0 0 .591-.514l1.001-4.333.052-.353.024-.331c.004-.614-.261-1.07-.78-1.36Zm-2.214 4.872-.214.282-.54.279a1.923 1.923 0 0 1-.718.155c-.338 0-.603-.05-.782-.15l-.265-.514c0-.28.064-.5.201-.67l.582-.396c.249-.084.553-.155.905-.204.314-.04.934-.11 1.015-.112l.095.167c-.019.095-.195.83-.279 1.163ZM40.594 21.811c-.521-.292-1.338-.439-2.453-.439-.553 0-1.105.043-1.66.132-.412.06-.453.073-.707.127-.521.113-.602.636-.602.636l-.168.69c-.094.441.154.421.27.387.229-.068.352-.135.814-.243.443-.1.916-.174 1.289-.172.547 0 .967.06 1.246.177.278.12.414.328.414.623l-.021.193-.196.125c-.787.047-1.351.12-2.027.218-.666.093-1.254.255-1.742.48-.521.23-.914.54-1.182.933-.265.395-.394.873-.394 1.43 0 .533.188.97.562 1.306.373.331.858.497 1.444.497.369-.004.656-.028.861-.08l.663-.227.568-.312.514-.346.009.011-.047.222-.005.004.002.004c-.062.268.101.49.365.514l.002.005h1.274l.021-.007a.703.703 0 0 0 .584-.518l1.004-4.327.053-.355.029-.332c.001-.612-.261-1.065-.784-1.356Zm-2.209 4.872-.223.285-.535.277a1.945 1.945 0 0 1-.715.155c-.349 0-.607-.05-.781-.15l-.268-.513c0-.28.065-.499.196-.672.133-.163.336-.297.588-.395a5.1 5.1 0 0 1 .904-.203c.312-.039.93-.112 1.01-.113l.097.167c-.014.095-.191.828-.273 1.162ZM33.969 20.635a2.124 2.124 0 0 0-.756-.812 3.37 3.37 0 0 0-1.193-.438 9.44 9.44 0 0 0-1.615-.126l-2.871.002a.713.713 0 0 0-.655.522l-1.931 8.406c-.07.285.122.521.414.521l1.375-.002a.712.712 0 0 0 .66-.52l.465-2.041a.712.712 0 0 1 .66-.521h.393c1.681 0 2.984-.346 3.922-1.031.927-.693 1.396-1.6 1.396-2.727-.005-.491-.09-.906-.264-1.233Zm-2.961 2.749c-.414.298-.992.45-1.732.45h-.342a.411.411 0 0 1-.42-.523l.416-1.781a.698.698 0 0 1 .656-.521l.445-.003c.528.003.924.09 1.194.266.269.176.396.452.399.818.003.558-.204.988-.616 1.294ZM45.742 19.85c.063-.287-.117-.52-.412-.516H44.1c-.252 0-.479.187-.59.417l-.068.106-.062.272-1.719 7.814-.056.24.002.006c-.057.257.101.451.345.488l.021.029h1.277c.25 0 .485-.19.592-.424l.066-.1 1.838-8.331-.004-.001ZM24.986 21.472c-.325.004-1.646 0-1.646 0-.296 0-.676.239-.864.524 0 0-1.966 3.374-2.157 3.713l-.228-.003-.612-3.687c-.068-.29-.371-.538-.748-.538l-1.23.002c-.296 0-.478.236-.411.524 0 0 .934 5.315 1.121 6.566.087.69-.011.813-.011.813l-1.216 2.118c-.18.288-.083.523.212.523l1.422-.002c.296 0 .685-.233.861-.522l5.47-9.252c0 .001.526-.79.037-.779Z" fill="currentColor"/></g></symbol><symbol id="plug" viewBox="0 0 70 70"><g fill="none"><path d="M57.634 52.486a3.5 3.5 0 0 0-.127-4.793l-3.46-3.46a15.18 15.18 0 0 0-1.29-19.956L37.817 9.333l.301-.301a5.291 5.291 0 0 0-7.483-7.483l-6.134 6.134-6.618-6.617a3.641 3.641 0 0 0-5.15 5.15l6.618 6.617-6.517 6.517-6.617-6.617a3.641 3.641 0 0 0-5.15 5.15L7.685 24.5 1.55 30.636a5.291 5.291 0 0 0 7.483 7.483l.301-.301 14.943 14.942a15.156 15.156 0 0 0 19.957 1.29l3.459 3.46a3.478 3.478 0 0 0 4.794.127L64.85 70H70v-5.15L57.633 52.487ZM14.384 4.567a1.308 1.308 0 1 1 1.85-1.85l6.617 6.617-1.85 1.85-6.618-6.617ZM2.716 16.233a1.308 1.308 0 1 1 1.85-1.85L11.184 21l-1.85 1.85-6.617-6.617Zm4.968 19.934-.301.301A2.959 2.959 0 0 1 3.2 32.284l6.134-6.134 5.15-5.15L21 14.484l5.15-5.15L32.284 3.2a2.959 2.959 0 0 1 4.183 4.183l-.3.301L7.684 36.167ZM44.076 51.11c-5.015 5.004-13.134 5.004-18.15 0L10.984 36.167l25.183-25.183L51.11 25.926c5.004 5.015 5.004 13.135 0 18.15l-7.034 7.034Zm6.916 4.75a1.167 1.167 0 0 1-1.65 0l-3.358-3.36 6.517-6.517 3.358 3.36a1.167 1.167 0 0 1 0 1.649l-4.867 4.867Zm16.675 11.807h-1.85L54.15 56 56 54.15l11.667 11.667v1.85Z" fill="currentColor"/><path d="m43.146 42.951-3.5-18.666a1.167 1.167 0 0 0-1.97-.61l-3.416 3.416-1.677-4.19a1.167 1.167 0 0 0-1.908-.392l-5.834 5.833c-.33.33-.431.825-.259 1.258l4.667 11.666a1.167 1.167 0 0 0 1.909.392L35 37.817l6.175 6.175a1.167 1.167 0 0 0 1.97-1.04Zm-7.32-7.609a1.167 1.167 0 0 0-1.65 0l-3.416 3.416-3.723-9.309 4.038-4.039 1.676 4.191a1.167 1.167 0 0 0 1.909.392l3.102-3.102 2.399 12.785-4.336-4.334Z" fill="currentColor"/></g></symbol><symbol id="shower" viewBox="0 0 70 70"><g fill="none"><path d="M58.917 0a3.5 3.5 0 0 0-3.5 3.5v1.167H29.75a5.84 5.84 0 0 0-5.833 5.833v5.833h-2.334a3.5 3.5 0 0 0-3.5 3.5v4.02A17.183 17.183 0 0 0 9.918 38.5v1.381a3.5 3.5 0 0 0-2.333 3.286V45.5c0 .644.522 1.167 1.166 1.167h37.334c.644 0 1.166-.523 1.166-1.167v-2.333a3.5 3.5 0 0 0-2.333-3.286V38.5a17.43 17.43 0 0 0-5.134-12.38 15.74 15.74 0 0 0-3.033-2.287v-4a3.5 3.5 0 0 0-3.5-3.5h-2.333v-3.5c0-.644.522-1.166 1.166-1.166h23.334V14a3.5 3.5 0 0 0 3.5 3.5h3.5V0h-3.5Zm-14 43.167v1.166h-35v-1.166c0-.645.522-1.167 1.167-1.167H43.75c.645 0 1.167.522 1.167 1.167ZM38.14 27.774A15.106 15.106 0 0 1 42.584 38.5v1.167H12.25V38.5a14.892 14.892 0 0 1 7.319-12.833h15.704a13.6 13.6 0 0 1 2.867 2.107Zm-4.89-9.107c.645 0 1.167.522 1.167 1.166v3.5h-14v-3.5c0-.644.522-1.166 1.166-1.166H33.25Zm22.167-9.334H32.083a3.5 3.5 0 0 0-3.5 3.5v3.5H26.25V10.5a3.5 3.5 0 0 1 3.5-3.5h25.667v2.333Zm4.666 5.834h-1.166A1.167 1.167 0 0 1 57.75 14V3.5c0-.644.523-1.167 1.167-1.167h1.166v12.834ZM27.417 49c-.644 0-1.167.522-1.167 1.167v4.666a1.167 1.167 0 0 0 2.334 0v-4.666c0-.645-.523-1.167-1.167-1.167ZM27.417 58.333c-.644 0-1.167.523-1.167 1.167v4.667a1.167 1.167 0 0 0 2.334 0V59.5c0-.644-.523-1.167-1.167-1.167ZM41.417 53.667c-.644 0-1.167.522-1.167 1.166V59.5a1.167 1.167 0 0 0 2.334 0v-4.667c0-.644-.523-1.166-1.167-1.166ZM32.084 53.667c-.645 0-1.167.522-1.167 1.166V59.5a1.167 1.167 0 0 0 2.333 0v-4.667c0-.644-.522-1.166-1.166-1.166ZM22.75 53.667c-.644 0-1.166.522-1.166 1.166V59.5a1.167 1.167 0 0 0 2.333 0v-4.667c0-.644-.523-1.166-1.167-1.166ZM13.417 53.667c-.644 0-1.167.522-1.167 1.166V59.5a1.167 1.167 0 0 0 2.334 0v-4.667c0-.644-.523-1.166-1.167-1.166ZM18.084 49c-.645 0-1.167.522-1.167 1.167v4.666a1.167 1.167 0 0 0 2.333 0v-4.666c0-.645-.522-1.167-1.166-1.167ZM36.75 49c-.644 0-1.166.522-1.166 1.167v4.666a1.167 1.167 0 0 0 2.333 0v-4.666c0-.645-.523-1.167-1.167-1.167ZM36.75 58.333c-.644 0-1.166.523-1.166 1.167v4.667a1.167 1.167 0 0 0 2.333 0V59.5c0-.644-.523-1.167-1.167-1.167ZM18.084 58.333c-.645 0-1.167.523-1.167 1.167v4.667a1.167 1.167 0 0 0 2.333 0V59.5c0-.644-.522-1.167-1.166-1.167ZM22.75 63c-.644 0-1.166.522-1.166 1.167v4.666a1.167 1.167 0 0 0 2.333 0v-4.666c0-.645-.523-1.167-1.167-1.167ZM32.084 63c-.645 0-1.167.522-1.167 1.167v4.666a1.167 1.167 0 0 0 2.333 0v-4.666c0-.645-.522-1.167-1.166-1.167Z" fill="currentColor"/></g></symbol><symbol id="toilet" viewBox="0 0 70 70"><g fill="none"><path d="M50.167 32.667H49v-2.334h1.167a3.5 3.5 0 0 0 3.5-3.5V6.785A3.492 3.492 0 0 0 52.5 0h-35a3.492 3.492 0 0 0-1.166 6.785v20.048a3.5 3.5 0 0 0 3.5 3.5H21v2.334h-1.166A5.84 5.84 0 0 0 14 38.5c0 .644.523 1.167 1.167 1.167a19.717 19.717 0 0 0 11.667 18.056v11.11c0 .645.522 1.167 1.166 1.167h14c.645 0 1.167-.522 1.167-1.167v-11.11a19.722 19.722 0 0 0 11.667-18.056c.644 0 1.166-.523 1.166-1.167a5.84 5.84 0 0 0-5.833-5.833ZM16.334 3.5c0-.644.522-1.167 1.166-1.167h35a1.167 1.167 0 0 1 0 2.334h-35A1.167 1.167 0 0 1 16.334 3.5Zm3.5 24.5a1.167 1.167 0 0 1-1.167-1.167V7h32.667v19.833c0 .645-.523 1.167-1.167 1.167H19.834Zm26.833 2.333v2.334H23.334v-2.334h23.333Zm-17.5 37.334v-9.04l.108.03c.117.034.234.061.35.094a16.705 16.705 0 0 0 1.923.436c.36.063.723.117 1.089.158.221.027.44.055.665.073.475.04.951.063 1.429.068.088 0 .175.013.263.013.09 0 .177-.012.265-.013a19.86 19.86 0 0 0 1.428-.068c.224-.018.446-.048.669-.073.361-.043.72-.095 1.079-.157.213-.037.427-.075.64-.116.424-.088.843-.194 1.258-.31.13-.037.261-.066.39-.104l.105-.028.006 9.037H29.167Zm12.39-11.778a17.56 17.56 0 0 1-9.904.954 16.915 16.915 0 0 1-3.216-.957A17.413 17.413 0 0 1 17.5 39.666h35A17.416 17.416 0 0 1 41.557 55.89ZM16.533 37.333a3.507 3.507 0 0 1 3.3-2.333h30.334a3.507 3.507 0 0 1 3.3 2.333H16.533Z" fill="currentColor"/><path d="M30.334 10.5h-3.715a3.5 3.5 0 1 0 0 2.333h3.715a1.167 1.167 0 0 0 0-2.333Zm-7 2.333a1.167 1.167 0 1 1 0-2.333 1.167 1.167 0 0 1 0 2.333Z" fill="currentColor"/></g></symbol><symbol id="towels" viewBox="0 0 70 70"><g fill="none"><path d="M70 19.833a8.176 8.176 0 0 0-8.166-8.167h-35a7.67 7.67 0 0 0-2.119.29c-.436.106-11.96 4.45-18.791 7.03h-.01A7.953 7.953 0 0 0 2.4 21.052 8.072 8.072 0 0 0 0 26.833a8.16 8.16 0 0 0 3.976 7 8.167 8.167 0 0 0-3.976 7 8.167 8.167 0 0 0 3.982 7A8.159 8.159 0 0 0 8.167 63h35a8.091 8.091 0 0 0 3.487-.794.22.22 0 0 0 .026 0l18.77-7.05a8.148 8.148 0 0 0 .564-14.313 7.395 7.395 0 0 0 1.585-1.234A8.072 8.072 0 0 0 70 33.833a8.187 8.187 0 0 0-3.978-6.993 7.44 7.44 0 0 0 1.58-1.23A8.072 8.072 0 0 0 70 19.832Zm-44.642-5.634c.48-.134.977-.201 1.476-.2h35a5.84 5.84 0 0 1 5.833 5.834 5.755 5.755 0 0 1-1.712 4.122c-.396.412-.86.754-1.371 1.01-.064.034-.117.066-.177.096-1.573.583-4.344 1.624-8.639 3.236l-5.184 1.947a8.161 8.161 0 0 0-7.417-11.578H13.384c5.81-2.187 11.499-4.316 11.974-4.467ZM2.334 26.833a5.76 5.76 0 0 1 1.717-4.128 5.617 5.617 0 0 1 2.56-1.487c.03-.01.064-.02.098-.033A5.682 5.682 0 0 1 8.167 21h35A5.84 5.84 0 0 1 49 26.833a5.874 5.874 0 0 1-3.163 5.188 1.119 1.119 0 0 0-.1.044c-.798.4-1.678.605-2.57.601h-35a5.84 5.84 0 0 1-5.833-5.833Zm0 14A5.844 5.844 0 0 1 8.167 35h35A5.84 5.84 0 0 1 49 40.833a5.874 5.874 0 0 1-3.163 5.188 1.119 1.119 0 0 0-.1.044c-.798.4-1.678.605-2.57.601h-35a5.84 5.84 0 0 1-5.833-5.833Zm5.833 19.833a5.833 5.833 0 0 1 0-11.666h35a5.833 5.833 0 1 1 0 11.666h-35Zm59.5-12.833a5.759 5.759 0 0 1-1.71 4.122c-.42.425-.902.783-1.43 1.062l-13.952 5.232a8.123 8.123 0 0 0-3.104-10.344l15.4-5.777a5.818 5.818 0 0 1 4.796 5.705Zm0-14a5.755 5.755 0 0 1-1.712 4.122c-.396.412-.86.754-1.371 1.01l-.179.097-13.823 5.184a8.139 8.139 0 0 0-3.111-10.34l9.113-3.424c2.662-1 4.73-1.776 6.3-2.363a5.833 5.833 0 0 1 4.783 5.714Z" fill="currentColor"/><path d="M45.5 26.833c0-.644-.522-1.167-1.166-1.167H7A1.167 1.167 0 0 0 7 28h37.333c.644 0 1.167-.523 1.167-1.167ZM45.5 40.833c0-.644-.522-1.167-1.166-1.167H7A1.167 1.167 0 0 0 7 42h37.333c.644 0 1.167-.523 1.167-1.167ZM44.334 53.666H7A1.167 1.167 0 1 0 7 56h37.333a1.167 1.167 0 1 0 0-2.334ZM11.667 2.333c-.644 0-1.167.523-1.167 1.167v2.333a1.167 1.167 0 1 0 2.334 0V3.5c0-.644-.523-1.167-1.167-1.167ZM10.5 12.833a1.167 1.167 0 1 0 2.334 0V10.5a1.167 1.167 0 0 0-2.334 0v2.333ZM9.334 7H7a1.167 1.167 0 1 0 0 2.333h2.333a1.167 1.167 0 0 0 0-2.333ZM14 9.333h2.334a1.167 1.167 0 0 0 0-2.333H14a1.167 1.167 0 1 0 0 2.333ZM67.908 63.925a1.167 1.167 0 0 0-1.65 1.65l1.75 1.75a1.167 1.167 0 0 0 1.65-1.65l-1.75-1.75ZM62.759 62.075a1.167 1.167 0 0 0 1.65-1.65l-1.75-1.75a1.167 1.167 0 0 0-1.65 1.65l1.75 1.75ZM61.009 67.325a1.166 1.166 0 0 0 1.65 0l1.75-1.75a1.167 1.167 0 0 0-1.65-1.65l-1.75 1.75a1.166 1.166 0 0 0 0 1.65ZM68.009 58.675l-1.75 1.75a1.167 1.167 0 1 0 1.65 1.65l1.75-1.75a1.167 1.167 0 0 0-1.65-1.65Z" fill="currentColor"/></g></symbol><symbol id="twitter" viewBox="0 0 22 18"><g fill="none"><path d="M21.046 2.02a8.596 8.596 0 0 1-2.475.678A4.32 4.32 0 0 0 20.466.315 8.624 8.624 0 0 1 17.73 1.36a4.309 4.309 0 0 0-7.342 3.93A12.23 12.23 0 0 1 1.508.788 4.308 4.308 0 0 0 2.84 6.54a4.278 4.278 0 0 1-1.952-.539v.055a4.31 4.31 0 0 0 3.456 4.224 4.292 4.292 0 0 1-1.945.074 4.313 4.313 0 0 0 4.024 2.993 8.645 8.645 0 0 1-5.35 1.844c-.348 0-.692-.02-1.028-.06a12.187 12.187 0 0 0 6.604 1.935c7.924 0 12.258-6.565 12.258-12.259 0-.186-.004-.372-.012-.557a8.737 8.737 0 0 0 2.15-2.23Z" fill="currentColor"/></g></symbol><symbol id="views" viewBox="0 0 70 70"><g fill="none"><path d="M70 32.667a10.492 10.492 0 0 0-3.69-7.993 9.201 9.201 0 0 0 1.356-4.84 9.347 9.347 0 0 0-8.248-9.27 9.21 9.21 0 0 0 .082-1.23 9.312 9.312 0 0 0-16.908-5.408 9.304 9.304 0 0 0-15.183 0 9.32 9.32 0 0 0-16.827 6.638 9.347 9.347 0 0 0-8.248 9.27 9.201 9.201 0 0 0 1.357 4.84C-.723 28.436-1.252 35.063 2.51 39.477c.361.424.756.819 1.18 1.18A9.201 9.201 0 0 0 2.335 45.5a9.344 9.344 0 0 0 9.333 9.334h7v12.833h-3.5a1.167 1.167 0 0 0 0 2.333h39.666a1.167 1.167 0 1 0 0-2.333h-3.5V54.834h7a9.344 9.344 0 0 0 9.333-9.334 9.201 9.201 0 0 0-1.357-4.84A10.492 10.492 0 0 0 70 32.667ZM11.667 52.49a7.007 7.007 0 0 1-7-6.99A6.92 6.92 0 0 1 6.2 41.138a1.167 1.167 0 0 0-.259-1.695 8.167 8.167 0 0 1 0-13.552 1.167 1.167 0 0 0 .259-1.695 6.92 6.92 0 0 1-1.532-4.362 7.007 7.007 0 0 1 7-7l.302.017c.378.018.74-.15.967-.452a1.16 1.16 0 0 0 .195-1.05 7 7 0 0 1 13.03-4.999c0 .012 0 .023-.009.035a9.184 9.184 0 0 0-.336 1.34c-.014.077-.024.157-.036.233a8.795 8.795 0 0 0-.032 2.602 9.347 9.347 0 0 0-8.248 9.274 9.202 9.202 0 0 0 1.357 4.84c-.02.02-.038.039-.06.058l-5.43-5.431a1.167 1.167 0 0 0-1.65 1.65l5.498 5.497a10.488 10.488 0 0 0 1.642 14.212 9.134 9.134 0 0 0-1.022 2.359l-4.177-4.177a1.167 1.167 0 0 0-1.65 1.65l5.518 5.517c.01.162.012.326.03.484.01.11.033.215.048.322.03.216.06.43.106.642.027.126.064.247.096.37.048.188.096.375.155.557.042.13.092.254.14.38.064.171.129.342.203.508.056.126.117.249.179.371a7.71 7.71 0 0 0 .465.817 8.514 8.514 0 0 0 .541.769 10.376 10.376 0 0 0 .612.71c.118.125.247.245.375.364.065.06.124.129.19.187h-8.999Zm22.166 15.177H21V54.834h12.833v12.833ZM35 15.167c-.644 0-1.167.523-1.167 1.167v8.267l-5.3-5.3a1.167 1.167 0 0 0-1.65 1.65l6.95 6.95v15.95l-5.008-5.009a1.167 1.167 0 0 0-1.65 1.65l6.658 6.658v5.35h-7a7.007 7.007 0 0 1-7-7 6.92 6.92 0 0 1 1.532-4.362 1.167 1.167 0 0 0-.259-1.695 8.167 8.167 0 0 1 0-13.552 1.167 1.167 0 0 0 .26-1.695 6.92 6.92 0 0 1-1.532-4.362 7.007 7.007 0 0 1 7-7l.302.017c.377.02.74-.149.967-.452a1.16 1.16 0 0 0 .195-1.05 6.883 6.883 0 0 1-.175-3.298c0-.016 0-.034.007-.05.084-.421.207-.834.365-1.233A7 7 0 0 1 35 2.334a7 7 0 0 1 6.505 4.434c.16.402.281.817.365 1.241 0 .016 0 .034.008.05.08.42.12.847.122 1.275a7.02 7.02 0 0 1-.297 2.015c-.11.36-.038.753.194 1.05.228.302.59.471.967.452l.303-.017a7.007 7.007 0 0 1 7 7 6.92 6.92 0 0 1-1.532 4.362 1.167 1.167 0 0 0 .259 1.695 8.167 8.167 0 0 1 0 13.552 1.167 1.167 0 0 0-.26 1.695 6.92 6.92 0 0 1 1.532 4.362 7.007 7.007 0 0 1-7 7h-7V36.57c.088-.043.169-.097.242-.161l7.583-7.583a1.167 1.167 0 0 0-1.65-1.65l-6.174 6.175V16.334c0-.644-.523-1.166-1.167-1.166Zm14 52.5H36.167V54.834H49v12.833Zm14.746-26.604c.017.026.036.05.055.075a6.92 6.92 0 0 1 1.532 4.362 7.007 7.007 0 0 1-7 7h-9c.067-.058.127-.126.19-.186a7.899 7.899 0 0 0 .656-.675 7.17 7.17 0 0 0 .332-.4 8.448 8.448 0 0 0 .541-.769c.075-.116.148-.233.217-.35.087-.154.17-.311.248-.466.061-.123.117-.245.179-.371.075-.166.139-.337.203-.508.048-.127.098-.25.14-.38.06-.182.107-.37.155-.557.032-.123.069-.245.096-.37.045-.212.076-.427.106-.642.015-.108.037-.213.049-.322A9.29 9.29 0 0 0 52.5 45.5a9.201 9.201 0 0 0-1.357-4.84 10.48 10.48 0 0 0 3.662-7.482l4.353-4.352a1.167 1.167 0 0 0-1.65-1.65l-2.988 2.988a10.48 10.48 0 0 0-3.377-5.484 9.201 9.201 0 0 0 1.357-4.846 9.347 9.347 0 0 0-8.248-9.27 8.795 8.795 0 0 0-.035-2.603c-.012-.08-.023-.159-.037-.233a9.172 9.172 0 0 0-.336-1.34c0-.011 0-.023-.008-.035a7 7 0 0 1 13.03 5c-.11.36-.038.752.194 1.05.228.3.59.47.967.451l.306-.02a7.007 7.007 0 0 1 7 7 6.92 6.92 0 0 1-1.532 4.362 1.167 1.167 0 0 0 .26 1.695 8.167 8.167 0 0 1 0 13.552 1.167 1.167 0 0 0-.315 1.62Z" fill="currentColor"/></g></symbol><symbol id="visa" viewBox="0 0 48 48"><g fill="none"><path d="m19.153 16.8-2.431 14.265h3.888L23.043 16.8h-3.89ZM13.462 16.815l-3.808 9.729-.406-1.469c-.751-1.77-2.883-4.312-5.386-5.914l3.482 11.897 4.114-.007 6.123-14.239-4.119.003Z" fill="currentColor"/><path d="M7.772 17.836c-.226-.869-.881-1.128-1.694-1.159H.05l-.05.284c4.691 1.138 7.795 3.88 9.083 7.177l-1.311-6.302ZM30.923 19.534a7.178 7.178 0 0 1 2.91.546l.351.165.526-3.092c-.77-.289-1.977-.599-3.483-.599-3.842 0-6.55 1.935-6.571 4.708-.025 2.049 1.929 3.193 3.405 3.876 1.515.7 2.023 1.145 2.016 1.77-.012.955-1.208 1.393-2.325 1.393-1.557 0-2.384-.215-3.661-.747l-.501-.228-.547 3.193c.91.399 2.589.742 4.332.76 4.087 0 6.743-1.912 6.771-4.875.017-1.621-1.02-2.858-3.267-3.873-1.36-.662-2.192-1.102-2.184-1.77 0-.593.706-1.227 2.228-1.227ZM44.688 16.815h-3.004c-.933 0-1.627.254-2.037 1.184l-5.773 13.074h4.083s.666-1.758.817-2.143l4.979.006c.116.498.474 2.137.474 2.137h3.607l-3.146-14.258Zm-4.795 9.195c.32-.82 1.549-3.987 1.549-3.987-.021.039.317-.825.518-1.362l.262 1.23.901 4.119h-3.23Z" fill="currentColor"/></g></symbol><symbol id="wifi" viewBox="0 0 71 70"><g fill="none"><path d="M48.56 40.98c-3.629-3.494-8.42-5.419-13.491-5.419-5.073 0-9.864 1.926-13.493 5.422a19.668 19.668 0 0 0-1.864 2.07c-1.33 1.708-1.17 4.159.369 5.706l.008.008a4.293 4.293 0 0 0 3.054 1.267 4.372 4.372 0 0 0 3.456-1.686c.264-.336.552-.661.857-.965a10.692 10.692 0 0 1 7.613-3.146c2.88 0 5.584 1.117 7.613 3.145.303.304.591.629.856.966a4.373 4.373 0 0 0 3.456 1.686 4.291 4.291 0 0 0 3.063-1.275c1.539-1.547 1.698-3.998.368-5.706a19.658 19.658 0 0 0-1.865-2.072Zm.036 6.333-.006.007c-.428.425-.995.66-1.597.66a2.33 2.33 0 0 1-1.84-.902c-.315-.401-.658-.787-1.02-1.148a12.73 12.73 0 0 0-9.064-3.747c-3.43 0-6.65 1.33-9.066 3.747-.362.362-.705.748-1.02 1.148a2.33 2.33 0 0 1-1.84.901 2.252 2.252 0 0 1-1.602-.665c-.815-.815-.904-2.104-.208-2.999a17.668 17.668 0 0 1 1.669-1.853c3.243-3.125 7.53-4.846 12.067-4.846s8.822 1.72 12.065 4.845c.6.578 1.162 1.202 1.67 1.854.697.895.607 2.184-.208 2.998Z" fill="currentColor"/><path d="M35.069 48.807a6.149 6.149 0 0 0-4.376 1.812 6.148 6.148 0 0 0-1.813 4.376c0 1.653.644 3.207 1.813 4.376a6.149 6.149 0 0 0 4.376 1.812 6.147 6.147 0 0 0 4.375-1.812 6.195 6.195 0 0 0 0-8.752 6.147 6.147 0 0 0-4.375-1.812Zm2.922 9.11a4.107 4.107 0 0 1-2.922 1.212 4.107 4.107 0 0 1-2.924-1.211 4.107 4.107 0 0 1-1.21-2.923c0-1.104.43-2.142 1.21-2.923a4.107 4.107 0 0 1 2.924-1.211c1.104 0 2.142.43 2.922 1.21a4.138 4.138 0 0 1 0 5.847ZM69.003 23.967c-.46-.502-.94-1.004-1.425-1.49-6.686-6.683-15.1-11.098-24.33-12.765a45.756 45.756 0 0 0-26.593 3.118 1.027 1.027 0 1 0 .825 1.881c16.65-7.296 35.745-3.677 48.645 9.22.465.464.923.943 1.362 1.423a2.275 2.275 0 0 1-.082 3.15 2.273 2.273 0 0 1-1.675.673 2.24 2.24 0 0 1-1.62-.732c-.393-.43-.803-.86-1.218-1.274-7.414-7.415-17.295-11.497-27.823-11.497h-.003c-10.53 0-20.41 4.085-27.825 11.501-.414.415-.823.842-1.214 1.27-.42.459-.995.719-1.62.732a2.27 2.27 0 0 1-1.675-.672 2.275 2.275 0 0 1-.082-3.15c.438-.48.895-.957 1.359-1.42a44.205 44.205 0 0 1 10.082-7.56 1.027 1.027 0 1 0-.984-1.803 46.249 46.249 0 0 0-11.973 9.395 4.326 4.326 0 0 0 .146 5.99 4.314 4.314 0 0 0 3.173 1.274 4.277 4.277 0 0 0 3.09-1.4c.37-.405.758-.81 1.151-1.203 7.026-7.028 16.392-10.899 26.372-10.9h.003c9.978 0 19.344 3.87 26.37 10.896.393.393.782.8 1.156 1.208a4.277 4.277 0 0 0 3.09 1.4 4.368 4.368 0 0 0 3.173-1.274 4.326 4.326 0 0 0 .145-5.99Z" fill="currentColor"/><path d="M57.629 31.3a32.675 32.675 0 0 0-20.583-8.94 1.027 1.027 0 1 0-.122 2.052 30.617 30.617 0 0 1 21.184 10.35 2.298 2.298 0 0 1-.096 3.136 2.26 2.26 0 0 1-1.687.667 2.283 2.283 0 0 1-1.657-.783 26.733 26.733 0 0 0-1.478-1.55c-4.87-4.706-11.306-7.297-18.12-7.298h-.001c-6.815 0-13.25 2.592-18.12 7.297a26.439 26.439 0 0 0-1.48 1.551 2.281 2.281 0 0 1-1.657.783 2.289 2.289 0 0 1-1.796-3.789 30.598 30.598 0 0 1 21.2-10.363 1.028 1.028 0 0 0-.124-2.05 32.651 32.651 0 0 0-22.62 11.057c-1.502 1.711-1.414 4.316.2 5.93a4.293 4.293 0 0 0 3.207 1.269 4.375 4.375 0 0 0 3.133-1.48 24.1 24.1 0 0 1 1.365-1.43c9.205-8.894 24.181-8.894 33.385 0 .472.457.931.938 1.363 1.43a4.376 4.376 0 0 0 3.134 1.48 4.292 4.292 0 0 0 3.206-1.269 4.357 4.357 0 0 0 .186-5.946 33.397 33.397 0 0 0-2.022-2.103Z" fill="currentColor"/></g></symbol></svg>